<svg width="350" height="87" viewBox="0 0 350 87" fill="none" xmlns="http://www.w3.org/2000/svg">
<path fill-rule="evenodd" clip-rule="evenodd" d="M30.378 0C27.7033 0 25.5349 2.16832 25.5349 4.84307C25.5349 7.51782 27.7033 9.68614 30.378 9.68614H54.4679C57.1426 9.68614 59.3109 7.51782 59.3109 4.84307C59.3109 2.16832 57.1426 0 54.4679 0H30.378ZM14.0207 13.0641C11.3459 13.0641 9.17762 15.2324 9.17762 17.9071C9.17762 20.5819 11.3459 22.7502 14.0207 22.7502H35.4884C38.1631 22.7502 40.3314 20.5819 40.3314 17.9071C40.3314 15.2324 38.1631 13.0641 35.4884 13.0641H14.0207ZM42.2669 17.9071C42.2669 15.2324 44.4352 13.0641 47.11 13.0641H70.0761C72.7508 13.0641 74.9191 15.2324 74.9191 17.9071C74.9191 20.5819 72.7508 22.7502 70.0761 22.7502H47.11C44.4352 22.7502 42.2669 20.5819 42.2669 17.9071ZM6.55923 26.1267C3.90207 26.1267 1.74802 28.2808 1.74802 30.938C1.74802 33.5951 3.90207 35.7492 6.55922 35.7492H45.9463C48.6035 35.7492 50.7575 33.5951 50.7575 30.938C50.7575 28.2808 48.6035 26.1267 45.9463 26.1267H6.55923ZM52.5681 30.938C52.5681 28.2808 54.7221 26.1267 57.3793 26.1267H77.1002C79.7573 26.1267 81.9114 28.2808 81.9114 30.938C81.9114 33.5951 79.7573 35.7492 77.1002 35.7492H57.3793C54.7221 35.7492 52.5681 33.5951 52.5681 30.938ZM44.7375 39.1274C42.0627 39.1274 39.8944 41.2957 39.8944 43.9704C39.8944 46.6452 42.0627 48.8135 44.7375 48.8135H80.0027C82.6775 48.8135 84.8458 46.6452 84.8458 43.9704C84.8458 41.2957 82.6775 39.1274 80.0028 39.1274H44.7375ZM0 43.9704C0 41.2957 2.16832 39.1274 4.84307 39.1274H33.1159C35.7906 39.1274 37.959 41.2957 37.959 43.9704C37.959 46.6452 35.7906 48.8135 33.1159 48.8135H4.84306C2.16831 48.8135 0 46.6452 0 43.9704ZM27.0598 60.9206C29.7346 60.9206 31.9029 58.7523 31.9029 56.0775C31.9029 53.4027 29.7346 51.2344 27.0598 51.2344H7.09051C4.41576 51.2344 2.24744 53.4027 2.24744 56.0775C2.24744 58.7523 4.41575 60.9206 7.09051 60.9206H27.0598ZM82.5357 56.0775C82.5357 58.7523 80.3674 60.9206 77.6926 60.9206H38.5565C35.8818 60.9206 33.7134 58.7523 33.7134 56.0775C33.7134 53.4027 35.8818 51.2344 38.5565 51.2344H77.6926C80.3674 51.2344 82.5357 53.4027 82.5357 56.0775ZM40.2957 73.9198C42.9705 73.9198 45.1388 71.7515 45.1388 69.0767C45.1388 66.402 42.9705 64.2336 40.2957 64.2336H14.2081C11.5333 64.2336 9.36499 66.402 9.36499 69.0767C9.36499 71.7515 11.5333 73.9198 14.2081 73.9198H40.2957ZM74.7318 69.0767C74.7318 71.7515 72.5635 73.9198 69.8887 73.9198H51.9797C49.3049 73.9198 47.1366 71.7515 47.1366 69.0767C47.1366 66.402 49.3049 64.2336 51.9797 64.2336H69.8887C72.5635 64.2336 74.7318 66.402 74.7318 69.0767ZM30.378 86.9839C27.7033 86.9839 25.5349 84.8155 25.5349 82.1408C25.5349 79.466 27.7033 77.2977 30.378 77.2977H54.4679C57.1426 77.2977 59.3109 79.466 59.3109 82.1408C59.3109 84.8155 57.1426 86.9839 54.4679 86.9839H30.378Z" fill="#153FC2"/>
<mask id="mask0_395_28457" style="mask-type:alpha" maskUnits="userSpaceOnUse" x="0" y="0" width="85" height="87">
<path fill-rule="evenodd" clip-rule="evenodd" d="M30.378 0C27.7033 0 25.5349 2.16832 25.5349 4.84307C25.5349 7.51782 27.7033 9.68614 30.378 9.68614H54.4679C57.1426 9.68614 59.3109 7.51782 59.3109 4.84307C59.3109 2.16832 57.1426 0 54.4679 0H30.378ZM14.0207 13.0641C11.3459 13.0641 9.17762 15.2324 9.17762 17.9071C9.17762 20.5819 11.3459 22.7502 14.0207 22.7502H35.4884C38.1631 22.7502 40.3314 20.5819 40.3314 17.9071C40.3314 15.2324 38.1631 13.0641 35.4884 13.0641H14.0207ZM42.2669 17.9071C42.2669 15.2324 44.4352 13.0641 47.11 13.0641H70.0761C72.7508 13.0641 74.9191 15.2324 74.9191 17.9071C74.9191 20.5819 72.7508 22.7502 70.0761 22.7502H47.11C44.4352 22.7502 42.2669 20.5819 42.2669 17.9071ZM6.55923 26.1267C3.90207 26.1267 1.74802 28.2808 1.74802 30.938C1.74802 33.5951 3.90207 35.7492 6.55922 35.7492H45.9463C48.6035 35.7492 50.7575 33.5951 50.7575 30.938C50.7575 28.2808 48.6035 26.1267 45.9463 26.1267H6.55923ZM52.5681 30.938C52.5681 28.2808 54.7221 26.1267 57.3793 26.1267H77.1002C79.7573 26.1267 81.9114 28.2808 81.9114 30.938C81.9114 33.5951 79.7573 35.7492 77.1002 35.7492H57.3793C54.7221 35.7492 52.5681 33.5951 52.5681 30.938ZM44.7375 39.1274C42.0627 39.1274 39.8944 41.2957 39.8944 43.9704C39.8944 46.6452 42.0627 48.8135 44.7375 48.8135H80.0027C82.6775 48.8135 84.8458 46.6452 84.8458 43.9704C84.8458 41.2957 82.6775 39.1274 80.0028 39.1274H44.7375ZM0 43.9704C0 41.2957 2.16832 39.1274 4.84307 39.1274H33.1159C35.7906 39.1274 37.959 41.2957 37.959 43.9704C37.959 46.6452 35.7906 48.8135 33.1159 48.8135H4.84306C2.16831 48.8135 0 46.6452 0 43.9704ZM27.0598 60.9206C29.7346 60.9206 31.9029 58.7523 31.9029 56.0775C31.9029 53.4027 29.7346 51.2344 27.0598 51.2344H7.09051C4.41576 51.2344 2.24744 53.4027 2.24744 56.0775C2.24744 58.7523 4.41575 60.9206 7.09051 60.9206H27.0598ZM82.5357 56.0775C82.5357 58.7523 80.3674 60.9206 77.6926 60.9206H38.5565C35.8818 60.9206 33.7134 58.7523 33.7134 56.0775C33.7134 53.4027 35.8818 51.2344 38.5565 51.2344H77.6926C80.3674 51.2344 82.5357 53.4027 82.5357 56.0775ZM40.2957 73.9198C42.9705 73.9198 45.1388 71.7515 45.1388 69.0767C45.1388 66.402 42.9705 64.2336 40.2957 64.2336H14.2081C11.5333 64.2336 9.36499 66.402 9.36499 69.0767C9.36499 71.7515 11.5333 73.9198 14.2081 73.9198H40.2957ZM74.7318 69.0767C74.7318 71.7515 72.5635 73.9198 69.8887 73.9198H51.9797C49.3049 73.9198 47.1366 71.7515 47.1366 69.0767C47.1366 66.402 49.3049 64.2336 51.9797 64.2336H69.8887C72.5635 64.2336 74.7318 66.402 74.7318 69.0767ZM30.378 86.9839C27.7033 86.9839 25.5349 84.8155 25.5349 82.1408C25.5349 79.466 27.7033 77.2977 30.378 77.2977H54.4679C57.1426 77.2977 59.3109 79.466 59.3109 82.1408C59.3109 84.8155 57.1426 86.9839 54.4679 86.9839H30.378Z" fill="#D24242"/>
</mask>
<g mask="url(#mask0_395_28457)">
<g style="mix-blend-mode:lighten">
<path fill-rule="evenodd" clip-rule="evenodd" d="M-61.9095 21.2157C-80.2788 10.6801 -96.6006 3.92195 -113.15 3.00111L-111.484 -28.5051C-85.089 -27.0365 -62.0684 -16.4426 -42.0939 -4.9864C-33.2553 0.0828549 -24.5283 5.61742 -16.2075 10.8943C-15.0759 11.6119 -13.9519 12.3248 -12.8361 13.0311C-3.33587 19.0445 5.69171 24.6634 14.7651 29.5432C32.9679 39.333 49.568 45.1386 66.7629 44.8541C83.9578 44.5696 104.17 38.3669 129.904 18.4985L154.542 42.2132C124.485 65.42 87.1675 76.1053 68.1486 76.42C40.5768 76.8761 16.6201 67.4164 -4.12814 56.2577C-14.5303 50.6633 -24.5769 44.3873 -34.0749 38.3753C-35.2234 37.6483 -36.3628 36.9259 -37.4943 36.2085C-45.8964 30.8816 -53.8619 25.8313 -61.9095 21.2157Z" fill="url(#paint0_linear_395_28457)"/>
</g>
</g>
<path d="M193.438 7.61175C197.198 2.53725 203.475 0 212.271 0C221.067 0 227.345 2.53725 231.104 7.61175C234.864 12.6127 236.744 19.6729 236.744 28.7923C236.744 48.1342 228.586 57.8052 212.271 57.8052C195.956 57.8052 187.799 48.1342 187.799 28.7923C187.799 19.6729 189.679 12.6127 193.438 7.61175ZM204.397 41.2579C205.887 43.9054 208.512 45.2292 212.271 45.2292C216.031 45.2292 218.62 43.9054 220.039 41.2579C221.528 38.6103 222.273 34.4551 222.273 28.7923C222.273 23.1294 221.528 19.011 220.039 16.437C218.62 13.8629 216.031 12.5759 212.271 12.5759C208.512 12.5759 205.887 13.8629 204.397 16.437C202.979 19.011 202.269 23.1294 202.269 28.7923C202.269 34.4551 202.979 38.6103 204.397 41.2579Z" fill="#153FC2"/>
<path d="M251.489 8.19598C255.248 3.12148 261.526 0.584229 270.322 0.584229C279.118 0.584229 285.396 3.12148 289.155 8.19598C292.915 13.1969 294.794 20.2571 294.794 29.3765C294.794 48.7184 286.637 58.3894 270.322 58.3894C254.007 58.3894 245.85 48.7184 245.85 29.3765C245.85 20.2571 247.729 13.1969 251.489 8.19598ZM262.448 41.8421C263.938 44.4897 266.562 45.8135 270.322 45.8135C274.082 45.8135 276.671 44.4897 278.089 41.8421C279.579 39.1945 280.324 35.0393 280.324 29.3765C280.324 23.7136 279.579 19.5952 278.089 17.0212C276.671 14.4472 274.082 13.1602 270.322 13.1602C266.562 13.1602 263.938 14.4472 262.448 17.0212C261.03 19.5952 260.32 23.7136 260.32 29.3765C260.32 35.0393 261.03 39.1945 262.448 41.8421Z" fill="#153FC2"/>
<path d="M318.134 57.221H303.9V2.48124H318.028V5.54666C322.843 2.6272 327.269 1.16748 331.305 1.16748C338.386 1.16748 343.272 3.32058 345.963 7.62677C348.654 11.933 350 18.5747 350 27.552V57.221H335.766V27.9899C335.766 23.3188 335.235 19.8885 334.173 17.6989C333.111 15.4363 330.986 14.305 327.8 14.305C324.896 14.305 322.099 14.8159 319.408 15.8377L318.134 16.2756V57.221Z" fill="#153FC2"/>
<path d="M116.161 57.221H101.861V2.48124H116.054V5.54666C120.963 2.6272 125.16 1.16748 128.646 1.16748C134.408 1.16748 138.854 2.88266 141.985 6.31301C148.53 2.88266 154.505 1.16748 159.912 1.16748C166.955 1.16748 171.828 3.28408 174.532 7.51729C177.306 11.6775 178.693 18.3558 178.693 27.552V57.221H164.394V27.9899C164.394 23.3188 163.896 19.8885 162.9 17.6989C161.904 15.4363 159.912 14.305 156.924 14.305C154.648 14.305 151.873 14.8159 148.601 15.8377L147 16.3851C147.285 21.8591 147.427 26.0193 147.427 28.8658V57.221H133.128V29.0847C133.128 23.6838 132.665 19.8885 131.74 17.6989C130.816 15.4363 128.788 14.305 125.658 14.305C122.883 14.305 120.144 14.8159 117.441 15.8377L116.161 16.2756V57.221Z" fill="#153FC2"/>
<path d="M295.535 80.2791V82.176C295.535 82.9774 295.437 83.6799 295.24 84.2836C295.048 84.882 294.774 85.3842 294.416 85.7901C294.064 86.1909 293.636 86.4927 293.133 86.6956C292.636 86.8986 292.084 87.0001 291.478 87.0001C290.871 87.0001 290.317 86.8986 289.814 86.6956C289.317 86.4927 288.886 86.1909 288.524 85.7901C288.166 85.3842 287.889 84.882 287.692 84.2836C287.495 83.6799 287.396 82.9774 287.396 82.176V80.2791C287.396 79.4569 287.492 78.7387 287.684 78.1246C287.876 77.5054 288.153 76.9902 288.516 76.579C288.879 76.1627 289.309 75.8505 289.806 75.6423C290.304 75.4289 290.856 75.3223 291.462 75.3223C292.068 75.3223 292.62 75.4289 293.118 75.6423C293.615 75.8505 294.045 76.1627 294.408 76.579C294.771 76.9902 295.048 77.5054 295.24 78.1246C295.437 78.7387 295.535 79.4569 295.535 80.2791ZM293.273 82.176V80.2635C293.273 79.7223 293.234 79.2617 293.157 78.8818C293.079 78.4967 292.962 78.1819 292.807 77.9373C292.651 77.6927 292.462 77.5132 292.239 77.3987C292.017 77.2842 291.757 77.2269 291.462 77.2269C291.167 77.2269 290.905 77.2842 290.677 77.3987C290.454 77.5132 290.265 77.6927 290.109 77.9373C289.959 78.1819 289.845 78.4967 289.767 78.8818C289.695 79.2617 289.659 79.7223 289.659 80.2635V82.176C289.659 82.6964 289.697 83.1413 289.775 83.5108C289.853 83.8803 289.97 84.1821 290.125 84.4163C290.28 84.6505 290.47 84.8248 290.692 84.9393C290.921 85.0486 291.182 85.1032 291.478 85.1032C291.768 85.1032 292.024 85.0486 292.247 84.9393C292.475 84.8248 292.664 84.6505 292.815 84.4163C292.965 84.1821 293.079 83.8803 293.157 83.5108C293.234 83.1413 293.273 82.6964 293.273 82.176Z" fill="#153FC2"/>
<path d="M307.97 75.4784V86.844H305.77L302.218 79.7327V86.844H300.057V75.4784H302.226L305.809 82.6677V75.4784H307.97Z" fill="#153FC2"/>
<path d="M318.952 84.9549V86.844H314.249V84.9549H318.952ZM314.948 75.4784V86.844H312.671V75.4784H314.948Z" fill="#153FC2"/>
<path d="M325.517 75.4784V86.844H323.255V75.4784H325.517Z" fill="#153FC2"/>
<path d="M338.24 75.4784V86.844H336.04L332.488 79.7327V86.844H330.326V75.4784H332.495L336.079 82.6677V75.4784H338.24Z" fill="#153FC2"/>
<path d="M349.431 84.9549V86.844H344.51V84.9549H349.431ZM345.218 75.4784V86.844H342.94V75.4784H345.218ZM348.77 80.0839V81.9184H344.51V80.0839H348.77ZM349.416 75.4784V77.3752H344.51V75.4784H349.416Z" fill="#153FC2"/>
<path d="M240.914 80.2791V82.176C240.914 82.9774 240.815 83.6799 240.618 84.2836C240.426 84.882 240.151 85.3842 239.792 85.7901C239.439 86.1909 239.011 86.4927 238.507 86.6956C238.009 86.8986 237.456 87.0001 236.848 87.0001C236.241 87.0001 235.685 86.8986 235.182 86.6956C234.683 86.4927 234.252 86.1909 233.889 85.7901C233.531 85.3842 233.253 84.882 233.056 84.2836C232.858 83.6799 232.76 82.9774 232.76 82.176V80.2791C232.76 79.4569 232.856 78.7387 233.048 78.1246C233.24 77.5054 233.518 76.9902 233.881 76.579C234.245 76.1627 234.676 75.8505 235.174 75.6423C235.672 75.4289 236.225 75.3223 236.833 75.3223C237.44 75.3223 237.993 75.4289 238.492 75.6423C238.99 75.8505 239.421 76.1627 239.784 76.579C240.148 76.9902 240.426 77.5054 240.618 78.1246C240.815 78.7387 240.914 79.4569 240.914 80.2791ZM238.647 82.176V80.2635C238.647 79.7223 238.609 79.2617 238.531 78.8818C238.453 78.4967 238.336 78.1819 238.18 77.9373C238.024 77.6927 237.835 77.5132 237.612 77.3987C237.388 77.2842 237.129 77.2269 236.833 77.2269C236.537 77.2269 236.275 77.2842 236.046 77.3987C235.823 77.5132 235.634 77.6927 235.478 77.9373C235.327 78.1819 235.213 78.4967 235.135 78.8818C235.062 79.2617 235.026 79.7223 235.026 80.2635V82.176C235.026 82.6964 235.065 83.1413 235.143 83.5108C235.221 83.8803 235.338 84.1821 235.493 84.4163C235.649 84.6505 235.839 84.8248 236.062 84.9393C236.29 85.0486 236.552 85.1032 236.848 85.1032C237.139 85.1032 237.396 85.0486 237.619 84.9393C237.848 84.8248 238.037 84.6505 238.188 84.4163C238.339 84.1821 238.453 83.8803 238.531 83.5108C238.609 83.1413 238.647 82.6964 238.647 82.176Z" fill="#153FC2"/>
<path d="M249.306 82.8395H246.985V80.9426H249.306C249.628 80.9426 249.89 80.8697 250.093 80.724C250.301 80.5783 250.451 80.378 250.545 80.123C250.638 79.8628 250.685 79.5713 250.685 79.2487C250.685 78.9208 250.635 78.6164 250.537 78.3354C250.443 78.0492 250.295 77.8176 250.093 77.6407C249.896 77.4637 249.633 77.3752 249.306 77.3752H247.718V86.844H245.443V75.4784H249.306C250.07 75.4784 250.726 75.6397 251.277 75.9624C251.827 76.285 252.248 76.73 252.538 77.2972C252.834 77.8592 252.982 78.5045 252.982 79.2331C252.982 79.9668 252.834 80.6043 252.538 81.1456C252.248 81.6816 251.827 82.0979 251.277 82.3945C250.726 82.6912 250.07 82.8395 249.306 82.8395Z" fill="#153FC2"/>
<path d="M263.883 84.9549V86.844H258.953V84.9549H263.883ZM259.661 75.4784V86.844H257.38V75.4784H259.661ZM263.221 80.0839V81.9184H258.953V80.0839H263.221ZM263.867 75.4784V77.3752H258.953V75.4784H263.867Z" fill="#153FC2"/>
<path d="M276.013 75.4784V86.844H273.809L270.25 79.7327V86.844H268.085V75.4784H270.258L273.848 82.6677V75.4784H276.013Z" fill="#153FC2"/>
<path d="M102.67 75.4861H104.67L106.98 83.2557L109.283 75.4861H111.049L107.828 86.8441H106.124L102.67 75.4861ZM101.861 75.4861H103.767L104.063 82.9749V86.8441H101.861V75.4861ZM110.177 75.4861H112.091V86.8441H109.897V82.9749L110.177 75.4861Z" fill="#153FC2"/>
<path d="M124.776 80.2836V82.1792C124.776 82.9801 124.678 83.6821 124.481 84.2854C124.289 84.8835 124.014 85.3853 123.656 85.791C123.303 86.1914 122.876 86.493 122.373 86.6958C121.875 86.8987 121.322 87.0001 120.716 87.0001C120.109 87.0001 119.554 86.8987 119.051 86.6958C118.553 86.493 118.122 86.1914 117.759 85.791C117.402 85.3853 117.124 84.8835 116.927 84.2854C116.73 83.6821 116.631 82.9801 116.631 82.1792V80.2836C116.631 79.4619 116.727 78.7442 116.919 78.1306C117.111 77.5117 117.389 76.9968 117.752 76.586C118.115 76.17 118.545 75.8579 119.043 75.6499C119.541 75.4367 120.093 75.3301 120.7 75.3301C121.307 75.3301 121.859 75.4367 122.357 75.6499C122.855 75.8579 123.285 76.17 123.648 76.586C124.011 76.9968 124.289 77.5117 124.481 78.1306C124.678 78.7442 124.776 79.4619 124.776 80.2836ZM122.513 82.1792V80.268C122.513 79.7271 122.474 79.2669 122.396 78.8872C122.318 78.5024 122.201 78.1878 122.046 77.9433C121.89 77.6989 121.701 77.5195 121.478 77.4051C121.255 77.2907 120.996 77.2335 120.7 77.2335C120.404 77.2335 120.142 77.2907 119.914 77.4051C119.691 77.5195 119.502 77.6989 119.346 77.9433C119.196 78.1878 119.082 78.5024 119.004 78.8872C118.931 79.2669 118.895 79.7271 118.895 80.268V82.1792C118.895 82.6992 118.934 83.1439 119.012 83.5131C119.09 83.8824 119.206 84.184 119.362 84.418C119.518 84.652 119.707 84.8263 119.93 84.9407C120.158 85.0499 120.42 85.1045 120.716 85.1045C121.006 85.1045 121.263 85.0499 121.486 84.9407C121.714 84.8263 121.903 84.652 122.054 84.418C122.204 84.184 122.318 83.8824 122.396 83.5131C122.474 83.1439 122.513 82.6992 122.513 82.1792Z" fill="#153FC2"/>
<path d="M132.257 86.8441H130.258L130.273 84.9563H132.257C132.807 84.9563 133.235 84.8575 133.541 84.6598C133.847 84.4622 134.062 84.1502 134.186 83.7237C134.316 83.2973 134.381 82.7382 134.381 82.0466V80.2758C134.381 79.7505 134.347 79.3059 134.28 78.9418C134.212 78.5726 134.098 78.2762 133.938 78.0525C133.777 77.8237 133.562 77.6547 133.292 77.5455C133.022 77.4363 132.688 77.3817 132.288 77.3817H130.219V75.4861H132.288C132.942 75.4861 133.536 75.5927 134.07 75.8059C134.604 76.0191 135.063 76.3312 135.447 76.742C135.83 77.1477 136.126 77.6495 136.334 78.2476C136.541 78.8456 136.645 79.5269 136.645 80.2914V82.0466C136.645 82.8162 136.541 83.4975 136.334 84.0904C136.126 84.6832 135.83 85.1851 135.447 85.5959C135.068 86.0016 134.609 86.311 134.07 86.5242C133.53 86.7374 132.926 86.8441 132.257 86.8441ZM131.58 75.4861V86.8441H129.301V75.4861H131.58Z" fill="#153FC2"/>
<path d="M146.265 75.4861H148.536V83.2869C148.536 84.1606 148.376 84.8731 148.054 85.4243C147.738 85.9704 147.3 86.3708 146.739 86.6256C146.179 86.8753 145.539 87.0001 144.818 87.0001C144.092 87.0001 143.446 86.8753 142.881 86.6256C142.316 86.3708 141.875 85.9704 141.558 85.4243C141.247 84.8731 141.092 84.1606 141.092 83.2869V75.4861H143.363V83.2869C143.363 83.7809 143.418 84.1606 143.527 84.4258C143.641 84.691 143.804 84.8731 144.017 84.9719C144.234 85.0655 144.502 85.1123 144.818 85.1123C145.139 85.1123 145.404 85.0655 145.611 84.9719C145.824 84.8731 145.985 84.691 146.094 84.4258C146.208 84.1606 146.265 83.7809 146.265 83.2869V75.4861Z" fill="#153FC2"/>
<path d="M159.432 84.9563V86.8441H154.726V84.9563H159.432ZM155.426 75.4861V86.8441H153.147V75.4861H155.426Z" fill="#153FC2"/>
<path d="M166.003 75.4861V86.8441H163.739V75.4861H166.003Z" fill="#153FC2"/>
<path d="M175.608 83.8564C175.608 83.6535 175.59 83.4689 175.553 83.3025C175.517 83.1361 175.439 82.9827 175.32 82.8422C175.206 82.7018 175.037 82.5614 174.814 82.421C174.596 82.2806 174.311 82.135 173.959 81.9842C173.538 81.8073 173.131 81.6201 172.737 81.4225C172.343 81.2197 171.988 80.9857 171.671 80.7204C171.355 80.4552 171.104 80.1432 170.917 79.7843C170.735 79.4203 170.645 78.9938 170.645 78.505C170.645 78.0265 170.73 77.5923 170.901 77.2023C171.078 76.8122 171.327 76.4794 171.648 76.2038C171.97 75.9229 172.346 75.7071 172.776 75.5563C173.212 75.4055 173.697 75.3301 174.231 75.3301C174.957 75.3301 175.584 75.4809 176.113 75.7825C176.648 76.0841 177.06 76.4976 177.35 77.0228C177.646 77.5481 177.794 78.1514 177.794 78.8326H175.522C175.522 78.5102 175.475 78.2268 175.382 77.9823C175.294 77.7327 175.151 77.5377 174.954 77.3973C174.757 77.2569 174.503 77.1867 174.192 77.1867C173.901 77.1867 173.66 77.2465 173.468 77.3661C173.282 77.4805 173.142 77.6391 173.048 77.8419C172.96 78.0395 172.916 78.2632 172.916 78.5128C172.916 78.7 172.96 78.869 173.048 79.0198C173.142 79.1655 173.269 79.2981 173.43 79.4177C173.59 79.5321 173.78 79.6439 173.997 79.7531C174.22 79.8623 174.464 79.9689 174.729 80.073C175.242 80.2758 175.696 80.4994 176.09 80.7438C176.484 80.9831 176.814 81.2535 177.078 81.5551C177.343 81.8515 177.542 82.187 177.677 82.5614C177.812 82.9359 177.879 83.3623 177.879 83.8407C177.879 84.314 177.796 84.7456 177.63 85.1357C177.47 85.5205 177.234 85.8534 176.922 86.1342C176.611 86.4098 176.235 86.623 175.794 86.7739C175.359 86.9247 174.871 87.0001 174.332 87.0001C173.808 87.0001 173.313 86.9273 172.846 86.7817C172.379 86.6308 171.967 86.4046 171.609 86.103C171.257 85.7962 170.979 85.4087 170.777 84.9407C170.575 84.4674 170.473 83.9084 170.473 83.2635H172.753C172.753 83.6067 172.786 83.9006 172.854 84.145C172.921 84.3842 173.025 84.5766 173.165 84.7222C173.305 84.8627 173.476 84.9693 173.678 85.0421C173.886 85.1097 174.122 85.1435 174.386 85.1435C174.687 85.1435 174.926 85.0863 175.102 84.9719C175.284 84.8575 175.413 84.704 175.491 84.5116C175.569 84.3192 175.608 84.1008 175.608 83.8564Z" fill="#153FC2"/>
<path d="M186.799 75.4861V86.8441H184.536V75.4861H186.799ZM189.615 75.4861V77.3817H181.774V75.4861H189.615Z" fill="#153FC2"/>
<path d="M196.171 75.4861V86.8441H193.907V75.4861H196.171Z" fill="#153FC2"/>
<path d="M206.382 83.0607H208.646C208.615 83.9136 208.443 84.6338 208.132 85.2215C207.821 85.804 207.378 86.246 206.802 86.5476C206.232 86.8493 205.542 87.0001 204.733 87.0001C204.105 87.0001 203.548 86.8961 203.06 86.688C202.573 86.4748 202.158 86.1628 201.816 85.7519C201.473 85.3411 201.214 84.8341 201.038 84.2308C200.866 83.6223 200.781 82.9229 200.781 82.1324V80.2056C200.781 79.4151 200.872 78.7156 201.053 78.1072C201.24 77.4987 201.504 76.989 201.847 76.5782C202.194 76.1622 202.612 75.8501 203.099 75.6421C203.592 75.4289 204.147 75.3223 204.764 75.3223C205.588 75.3223 206.278 75.4783 206.833 75.7903C207.388 76.1023 207.816 76.5574 208.117 77.1555C208.423 77.7483 208.607 78.4738 208.669 79.3319H206.398C206.382 78.791 206.32 78.3672 206.211 78.0603C206.107 77.7483 205.941 77.5299 205.713 77.4051C205.485 77.2751 205.168 77.2101 204.764 77.2101C204.463 77.2101 204.204 77.2647 203.986 77.3739C203.768 77.4779 203.589 77.6469 203.449 77.8809C203.309 78.115 203.205 78.4218 203.138 78.8014C203.076 79.1811 203.045 79.6439 203.045 80.19V82.1324C203.045 82.668 203.073 83.1257 203.13 83.5053C203.187 83.8798 203.278 84.1866 203.403 84.4258C203.527 84.665 203.696 84.8393 203.908 84.9485C204.126 85.0577 204.401 85.1123 204.733 85.1123C205.117 85.1123 205.425 85.0551 205.659 84.9407C205.897 84.8263 206.073 84.6208 206.187 84.3244C206.302 84.028 206.366 83.6067 206.382 83.0607Z" fill="#153FC2"/>
<path d="M217.037 77.5143L214.602 86.8441H212.198L215.738 75.4861H217.239L217.037 77.5143ZM218.958 86.8441L216.508 77.5143L216.282 75.4861H217.807L221.378 86.8441H218.958ZM219.044 82.6082V84.5038H213.933V82.6082H219.044Z" fill="#153FC2"/>
<defs>
<linearGradient id="paint0_linear_395_28457" x1="21.5317" y1="25.8507" x2="7.2533" y2="61.8255" gradientUnits="userSpaceOnUse">
<stop offset="0.296875" stop-color="#72BDF3"/>
<stop offset="0.729167" stop-color="#1893EC"/>
<stop offset="1" stop-color="#1893EC"/>
</linearGradient>
</defs>
</svg>
